<svg width="1600" height="960" viewBox="0 0 1600 960" fill="none" xmlns="http://www.w3.org/2000/svg">
  <rect width="1600" height="960" fill="#081421"/>
  <circle cx="1360" cy="780" r="310" fill="#0891B2" fill-opacity="0.24"/>
  <circle cx="190" cy="150" r="260" fill="#22C55E" fill-opacity="0.16"/>
  <rect x="955" y="140" width="420" height="628" rx="36" fill="#0F1E37" fill-opacity="0.7" stroke="#E2E8F0" stroke-opacity="0.14"/>
  <rect x="1018" y="220" width="294" height="22" rx="11" fill="#E2E8F0" fill-opacity="0.88"/>
  <rect x="1018" y="272" width="206" height="12" rx="6" fill="#E2E8F0" fill-opacity="0.46"/>
  <rect x="1018" y="308" width="258" height="12" rx="6" fill="#E2E8F0" fill-opacity="0.46"/>
  <rect x="1018" y="344" width="226" height="12" rx="6" fill="#E2E8F0" fill-opacity="0.46"/>
  <rect x="1018" y="418" width="294" height="116" rx="24" fill="#0A1529" fill-opacity="0.56" stroke="#E2E8F0" stroke-opacity="0.12"/>
  <circle cx="1074" cy="476" r="20" fill="#34D399"/>
  <rect x="1113" y="462" width="133" height="12" rx="6" fill="#E2E8F0" fill-opacity="0.76"/>
  <rect x="1113" y="491" width="108" height="10" rx="5" fill="#E2E8F0" fill-opacity="0.36"/>
  <rect x="1018" y="574" width="138" height="114" rx="20" fill="#34D399" fill-opacity="0.14" stroke="#34D399" stroke-opacity="0.25"/>
  <rect x="1174" y="574" width="138" height="114" rx="20" fill="#38BDF8" fill-opacity="0.14" stroke="#38BDF8" stroke-opacity="0.25"/>
  <path d="M175 652C349 515 490 451 645 432C803 412 952 452 1094 491C1231 529 1364 566 1600 498V960H0V744C67 731 121 704 175 652Z" fill="url(#paint0_linear_2_1)"/>
  <rect x="248" y="235" width="415" height="318" rx="34" fill="#F8FAFC" fill-opacity="0.94"/>
  <rect x="298" y="296" width="316" height="18" rx="9" fill="#0B1324" fill-opacity="0.86"/>
  <rect x="298" y="343" width="240" height="10" rx="5" fill="#0B1324" fill-opacity="0.26"/>
  <rect x="298" y="376" width="270" height="10" rx="5" fill="#0B1324" fill-opacity="0.26"/>
  <rect x="298" y="409" width="190" height="10" rx="5" fill="#0B1324" fill-opacity="0.26"/>
  <path d="M332 501H579" stroke="#0F766E" stroke-width="18" stroke-linecap="round"/>
  <path d="M366 462L332 501L366 540" stroke="#0F766E" stroke-width="18" stroke-linecap="round" stroke-linejoin="round"/>
  <path d="M545 462L579 501L545 540" stroke="#0F766E" stroke-width="18" stroke-linecap="round" stroke-linejoin="round"/>
  <defs>
    <linearGradient id="paint0_linear_2_1" x1="800" y1="432" x2="800" y2="960" gradientUnits="userSpaceOnUse">
      <stop stop-color="#091523" stop-opacity="0"/>
      <stop offset="1" stop-color="#07111C"/>
    </linearGradient>
  </defs>
</svg>
